# xmcd CD database file
#
# Track frame offsets:
#	150
#	12638
#	26471
#	38980
#	53001
#	67899
#	82452
#	96220
#	110579
#	122307
#	137137
#	152102
#	164379
#	176728
#	189987
#	205246
#	220310
#	234827
#	248274
#	260904
#	274889
#	289394
#	302745
#	315065
#
# Disc length: 4394 seconds
#
# Revision: 6
# Processed by: cddbd v1.5.2PL0 Copyright (c) Steve Scherf et al.
# Submitted via: CDex 1.51
#
DISCID=54112818
DTITLE=Various Artist - City Jazz - Vol. 03-10  { 1928-1929 }
DYEAR=2002
DGENRE=Jazz
TTITLE0=Duke Ellington - Jubilee Stomp  [1928]
TTITLE1=Bessie Smith - Empty Bed Blues  [1928]
TTITLE2=Joe Venuti's Blue Four - Doin' Things  [1928]
TTITLE3=Louis Armstrong - Fireworks  [1928]
TTITLE4=Louis Armstrong - West End Blues  [1928]
TTITLE5=Johnny Dodds Trio - Blue Clarinet Stomp  [1928]
TTITLE6=Miff Mole's Molers - Shim-Me-Sha-Wabble  [1928]
TTITLE7=Jimmy Noone - Apex Blues  [1928]
TTITLE8=Bennie Moten's Kansas City Orchestra - South  [1928]
TTITLE9=Duke Ellington - The Mooche  [1928]
TTITLE10=Duke Ellington - Hot and Bothered  [1928]
TTITLE11=McKinney's Cotton Pickers - It's Tight Like That  [1928]
TTITLE12=Earl Hines - Weather Bird  [1928]
TTITLE13=Earl Hines - Chimes Blues  [1928]
TTITLE14=Louis Armstrong - St. James Infirmary  [1928]
TTITLE15=Louis Armstrong - Tight Like This  [1928]
TTITLE16=Pinetop Smith - Pinetop's Boogie Woogie  [1928]
TTITLE17=Clarence Williams - Too Low  [1929]
TTITLE18=Fats Waller - Handful Of Keys  [1929]
TTITLE19=Frankie Trumbauer - Raisin The Roof  [1929]
TTITLE20=Lonnie Johnson and Eddie Lang - Blue Guitars  [1929]
TTITLE21=Jelly Roll Morton - Freakish  [1929]
TTITLE22=Earl Hines - Beau Koo Jack  [1929]
TTITLE23=Mound City Blue Blowers - Hello Lola  [1929]
EXTD=Les trésors du jazz, 1898-1943\nPrésenté par André Francis et Jean Schwarz\nDisque 3: janvier 1928- novembre 1929 YEAR: 2002
EXTT0=
EXTT1=
EXTT2=
EXTT3=
EXTT4=
EXTT5=
EXTT6=(with Gene Krupa)
EXTT7=(with Earl Hines)
EXTT8=
EXTT9=
EXTT10=
EXTT11=
EXTT12=(with Louis Armstrong)
EXTT13=
EXTT14=(with Earl Hines)
EXTT15=
EXTT16=
EXTT17=
EXTT18=
EXTT19=
EXTT20=
EXTT21=
EXTT22=
EXTT23=(with Glenn Miller, Coleman Hawkins, Gene Krupa)
PLAYORDER=
